<svg width="20" height="14" viewBox="0 0 20 14" fill="none" xmlns="http://www.w3.org/2000/svg">
<path fill-rule="evenodd" clip-rule="evenodd" d="M8.07247 5.99507C8.07247 5.99507 9.96213 5.84805 9.96213 3.49609C9.96213 1.15065 8.41658 0 6.45439 0H0V13.134H6.45381C6.45381 13.134 10.3964 13.262 10.3964 9.25463C10.3967 9.25463 10.5658 5.99507 8.07247 5.99507ZM10.8855 8.38558C10.8855 8.35978 10.8917 3.34254 15.649 3.34254C20.6724 3.34254 19.966 9.04358 19.966 9.04358H13.5421C13.5421 11.4788 15.7216 11.3253 15.7216 11.3253C17.7862 11.3253 17.714 9.91294 17.714 9.91294H19.8934C19.8934 13.6645 15.649 13.409 15.649 13.409C10.5596 13.409 10.8855 8.38558 10.8855 8.38558ZM15.6975 5.2662C13.7834 5.2662 13.5177 7.2859 13.5177 7.2859H17.5871C17.5871 7.2859 17.6174 5.2662 15.6975 5.2662ZM6.4541 2.33269H2.84389V5.2662H6.23066C6.81641 5.2662 7.32964 5.0679 7.32964 3.7003C7.32964 2.33269 6.4541 2.33269 6.4541 2.33269ZM6.27324 10.8013H2.84389V7.2859H6.4541C6.4541 7.2859 7.76447 7.27316 7.75831 9.09455C7.75831 10.6288 6.78647 10.7885 6.27324 10.8013ZM12.9804 2.39051V0.773317H18.1004V2.39051H12.9804Z" fill="#5A5A5A"/>
</svg>
