<svg width="20" height="21" viewBox="0 0 20 21" fill="none" xmlns="http://www.w3.org/2000/svg">
<path fill-rule="evenodd" clip-rule="evenodd" d="M9.99972 0C4.48587 0 0 4.53158 0 10.1012C0 15.6707 4.48587 20.202 9.99972 20.202C15.5138 20.202 20 15.671 20 10.1012C20 4.53158 15.5138 0 9.99972 0ZM16.58 4.76748C17.7206 6.19729 18.4139 8.00307 18.4458 9.97073C18.0663 9.89191 16.4588 9.58882 14.538 9.58882C13.9182 9.58882 13.2659 9.62029 12.6119 9.70195C12.5566 9.56614 12.5014 9.4309 12.4434 9.29424C12.2738 8.89078 12.091 8.49045 11.9018 8.09606C14.8582 6.86414 16.2842 5.15449 16.58 4.76748ZM15.566 3.70057C14.0783 2.3819 12.1305 1.58122 9.99972 1.58122C9.34514 1.58122 8.70767 1.65749 8.09514 1.80095C8.43883 2.2699 9.8831 4.29002 11.2026 6.72947C14.0533 5.64017 15.3305 4.02549 15.566 3.70057ZM6.37082 2.40911C6.66209 2.81484 8.1086 4.8565 9.46204 7.27639C5.82978 8.24208 2.60428 8.30502 1.8258 8.30502H1.7431C2.30237 5.69829 4.04379 3.53216 6.37082 2.40911ZM1.55472 9.90382C1.55248 9.97385 1.55136 10.0442 1.55136 10.1145C1.55136 12.2812 2.35563 14.2607 3.6788 15.7685C4.03594 15.1717 6.35681 11.5202 10.5794 10.1408C10.6722 10.1102 10.7656 10.0827 10.8603 10.0552C10.6588 9.59846 10.4421 9.14142 10.2145 8.69118C6.46417 9.81678 2.8249 9.90439 1.77646 9.90439C1.67975 9.90439 1.60518 9.90439 1.55472 9.90382ZM9.99972 18.6472C8.06207 18.6472 6.27383 17.9834 4.84694 16.8706C5.0883 16.392 6.8401 13.2021 11.4675 11.5732C11.4703 11.5721 11.4734 11.5709 11.4768 11.5701C12.6371 14.6254 13.1285 17.1896 13.2633 17.9843C12.2592 18.4113 11.1564 18.6472 9.99972 18.6472ZM13.1658 11.1513C14.2165 14.0824 14.6717 16.4856 14.785 17.1431C16.6349 15.8539 17.9525 13.8397 18.334 11.5123C18.013 11.413 16.6318 11.022 14.866 11.022C14.3283 11.022 13.755 11.0586 13.1658 11.1513Z" fill="#5A5A5A"/>
</svg>
