<svg width="15" height="21" viewBox="0 0 15 21" fill="none" xmlns="http://www.w3.org/2000/svg">
<path d="M13.0546 2.07018C11.741 0.735237 9.92295 0 7.93556 0C4.89971 0 3.03253 1.31729 2.00076 2.4223C0.72917 3.78409 0 5.59228 0 7.38333C0 9.63211 0.888595 11.3581 2.37667 12.0003C2.47657 12.0436 2.57709 12.0654 2.67563 12.0654C2.98956 12.0654 3.2383 11.848 3.32448 11.4992C3.3747 11.2991 3.4911 10.8055 3.5417 10.5912C3.65004 10.168 3.56251 9.96441 3.32626 9.6697C2.89588 9.13065 2.69545 8.49322 2.69545 7.66363C2.69545 5.19951 4.42882 2.58063 7.64145 2.58063C10.1905 2.58063 11.774 4.11424 11.774 6.58293C11.774 8.14078 11.457 9.5835 10.8812 10.6455C10.4811 11.3834 9.77756 12.263 8.69747 12.263C8.2304 12.263 7.81085 12.0599 7.5461 11.7059C7.29601 11.3712 7.21359 10.9388 7.31417 10.4881C7.4278 9.97901 7.58273 9.44791 7.73267 8.93447C8.00616 7.99672 8.26469 7.11103 8.26469 6.4044C8.26469 5.19573 7.56272 4.3836 6.51809 4.3836C5.19049 4.3836 4.15041 5.81094 4.15041 7.63307C4.15041 8.52671 4.37477 9.1951 4.47634 9.45175C4.3091 10.2018 3.31512 14.6613 3.12658 15.5022C3.01757 15.9931 2.36085 19.8703 3.44783 20.1795C4.66913 20.5268 5.76079 16.7507 5.87189 16.324C5.96195 15.977 6.27704 14.6647 6.47014 13.8581C7.0597 14.4592 8.00899 14.8656 8.93267 14.8656C10.674 14.8656 12.24 14.0362 13.3422 12.5302C14.4112 11.0695 15 9.03357 15 6.79775C15 5.04984 14.2909 3.32668 13.0546 2.07018Z" fill="#5A5A5A"/>
</svg>
