<svg width="20" height="18" viewBox="0 0 20 18" fill="none" xmlns="http://www.w3.org/2000/svg">
<path d="M20 1.98769C19.2644 2.32466 18.473 2.55258 17.6431 2.65437C18.4905 2.12994 19.1407 1.30016 19.4477 0.309787C18.6548 0.795646 17.7762 1.14811 16.842 1.33809C16.0935 0.514625 15.0271 0 13.8462 0C11.5805 0 9.74295 1.89823 9.74295 4.2387C9.74295 4.57093 9.77937 4.89431 9.84975 5.20473C6.43961 5.02803 3.41596 3.34064 1.39203 0.775415C1.03889 1.40131 0.836317 2.12994 0.836317 2.90662C0.836317 4.37684 1.56125 5.67479 2.66165 6.43471C1.98935 6.4129 1.35622 6.22229 0.803268 5.90397C0.802962 5.92198 0.802962 5.94 0.802962 5.9577C0.802962 8.01146 2.21794 9.72446 4.09468 10.1136C3.75073 10.2109 3.3875 10.2625 3.01386 10.2625C2.74886 10.2625 2.49212 10.2362 2.24181 10.1869C2.76385 11.8705 4.27889 13.0961 6.07485 13.1305C4.67028 14.2676 2.90125 14.945 0.978304 14.945C0.647817 14.945 0.320389 14.9251 0 14.8856C1.81493 16.0887 3.97228 16.7901 6.28936 16.7901C13.8367 16.7901 17.9641 10.3314 17.9641 4.72962C17.9641 4.54596 17.9602 4.36294 17.9522 4.18149C18.7546 3.58404 19.4501 2.83771 20 1.98769Z" fill="#5A5A5A"/>
</svg>
