<svg width="16" height="13" viewBox="0 0 16 13" fill="none" xmlns="http://www.w3.org/2000/svg">
<path d="M15.5833 1.5094C15.0101 1.76529 14.3936 1.93836 13.7469 2.01566C14.4072 1.61742 14.9138 0.987306 15.153 0.235244C14.5352 0.604194 13.8507 0.871844 13.1227 1.01611C12.5395 0.390794 11.7086 0 10.7885 0C9.02316 0 7.59139 1.44147 7.59139 3.21877C7.59139 3.47105 7.61976 3.71662 7.6746 3.95234C5.01753 3.81816 2.6616 2.5368 1.08462 0.588831C0.809471 1.06412 0.65163 1.61742 0.65163 2.20722C0.65163 3.32367 1.21647 4.30929 2.07387 4.88636C1.55004 4.8698 1.05672 4.72505 0.62588 4.48332C0.625641 4.49701 0.625641 4.51069 0.625641 4.52413C0.625641 6.08371 1.72814 7.38451 3.19044 7.68001C2.92244 7.75394 2.63942 7.79307 2.3483 7.79307C2.14182 7.79307 1.94178 7.77314 1.74674 7.7357C2.1535 9.01418 3.33397 9.94483 4.73332 9.971C3.63892 10.8344 2.26056 11.3489 0.762262 11.3489C0.504757 11.3489 0.249637 11.3337 0 11.3037C1.41413 12.2173 3.09506 12.75 4.90046 12.75C10.7811 12.75 13.9971 7.8454 13.9971 3.59156C13.9971 3.45209 13.994 3.3131 13.9878 3.17532C14.6129 2.72163 15.1549 2.15489 15.5833 1.5094Z" fill="white"/>
</svg>
