<svg width="20" height="19" viewBox="0 0 20 19" fill="none" xmlns="http://www.w3.org/2000/svg">
<path d="M0 4.77194C1.75987 3.3475 4.26211 0.219497 6.21375 0.219497C8.16305 0.219497 8.64182 2.55416 8.90775 4.67169C9.17718 6.78922 9.94295 11.4216 10.9735 11.4216C12.0064 11.4216 14.3579 7.32374 14.2239 5.74061C14.0921 4.15748 12.3887 4.39493 11.4524 4.84952C12.3135 1.68338 14.3016 0 16.8438 0C19.3871 0 20 1.82163 20 4.05854C20 7.4633 13.1945 17.8947 9.08298 17.8947C6.53964 17.8947 5.90904 14.094 5.39384 12.2126C4.87734 10.3337 3.86334 5.40304 2.6776 5.08684C2.21757 5.00926 0.918894 6.05551 0.918894 6.05551L0 4.77194Z" fill="#5A5A5A"/>
</svg>
